<svg width="240" height="34" viewBox="0 0 240 34" fill="none" xmlns="http://www.w3.org/2000/svg">
<path d="M0 34V7.15256e-07H34V34H0ZM4.012 30.328H14.926L4.012 19.414V30.328ZM3.706 13.464L10.778 20.536L17.612 13.464H3.706ZM4.012 9.792H19.72L13.43 3.672H4.012V9.792ZM14.416 24.174L20.57 30.328H29.988V24.174H14.416ZM16.184 20.502H30.26L23.12 13.362L16.184 20.502ZM19.074 3.672L29.988 14.586V3.672H19.074Z" fill="#E96B2D"/>
<path d="M41.8266 28.9V28.56L52.9786 10.234H42.6426V5.1H59.7786V9.792L51.1086 23.766H61.9546V28.9H41.8266ZM70.2185 28.9V10.234H62.2965V5.1H83.9205V10.234H75.9985V28.9H70.2185ZM102.758 28.9L101.194 26.044H94.4284L90.4844 21.59L86.4384 28.9H80.3184L94.4284 4.556H94.7684L108.878 28.9H102.758ZM90.5184 21.522H98.6784L94.5984 14.144L90.5184 21.522ZM111.661 28.9V5.1H126.349C131.789 5.1 134.883 8.296 134.883 12.444C134.883 16.048 132.639 18.87 128.559 19.618L135.563 28.9H128.491L118.529 15.3H125.499C127.573 15.3 128.763 14.11 128.763 12.444C128.763 10.846 127.573 9.622 125.499 9.622H117.339V28.9H111.661ZM139.983 28.9V5.1H145.763V28.9H139.983ZM156.915 28.9L146.953 15.3H149.911L156.235 5.1H163.069L155.283 17.374L163.987 28.9H156.915ZM190.193 29.444L172.819 13.294V28.9H167.243V5.1H172.139L184.957 17.204V5.1H190.533V29.444H190.193ZM196.097 28.9V5.1H215.205V9.622H201.775V24.378H215.545V28.9H196.097ZM205.583 19.108L201.775 14.892H213.165V19.108H205.583ZM225.642 28.9V10.234H217.72V5.1H239.344V10.234H231.422V28.9H225.642Z" fill="white"/>
</svg>
