<svg width="1500" height="1500" viewBox="0 0 1500 1500" fill="none" xmlns="http://www.w3.org/2000/svg">
<rect width="1500" height="1500" fill="#0B0A18"/>
<path d="M150 150H1350V1350H150V150ZM1208.4 1220.4V279.6H291.6V1220.4H1208.4ZM942 1350H741.6L150 758.4V558L942 1350ZM758.4 150L1350 741.6V942L558 150H758.4ZM801.6 895.2H1244.4V1024.8H801.6V895.2ZM1166.4 686.4L816 1024.8H614.4L1048.8 603.6L1166.4 686.4ZM723.6 602.4H255.6V472.8H723.6V602.4ZM340.8 804L681.6 472.8H884.4L451.2 894L340.8 804Z" fill="#E96B2D"/>
</svg>
